  0
SECTION
  2
HEADER
  9
$ACADVER
  1
AC1009
  9
$FILLMODE
 70
0
  9
$EXTMIN
 10
-0.0765
 20
-0.0765
 30
0.0000
  9
$EXTMAX
 10
324.9803
 20
138.2691
 30
0.0000
  0
ENDSEC
  0
SECTION
  2
TABLES
  0
TABLE
  2
LTYPE
 70
1
  0
LTYPE
  2
CONTINUOUS
 70
64
  3
Solid line
 72
65
 73
0
 40
0
  0
ENDTAB
  0
TABLE
  2
LAYER
 70
255
  0
LAYER
  2
20
 70
64
 62
31
  6
CONTINUOUS
  0
LAYER
  2
45
 70
64
 62
253
  6
CONTINUOUS
  0
LAYER
  2
46
 70
64
 62
140
  6
CONTINUOUS
  0
ENDTAB
  0
ENDSEC
  0
SECTION
  2
BLOCKS
  0
BLOCK
  8
0
  2
RECT
 70
64
 10
0.0000
 20
0.0000
 30
0.0000
  3
RECT
  0
SOLID
  8
0
 10
-0.5000
 20
-0.5000
 30
0.0000
 11
0.5000
 21
-0.5000
 31
0.0000
 12
-0.5000
 22
0.5000
 32
0.0000
 13
0.5000
 23
0.5000
 33
0.0000
  0
ENDBLK
  8
0
  0
BLOCK
  8
0
  2
PIE
 70
64
 10
0.0000
 20
0.0000
 30
0.0000
  3
PIE
  0
CIRCLE
  8
0
 10
0.0000
 20
0.0000
 30
0.0000
 40
0.5000
  0
ENDBLK
  8
0
  0
BLOCK
  8
0
  2
OCTAGONP
 70
64
 10
0.0000
 20
0.0000
 30
0.0000
  3
OCTAGONP
  0
POLYLINE
  8
0
 66
1
 10
0.0000
 20
0.0000
 30
0.0000
 40
0.0000
 41
0.0000
 70
1
  0
VERTEX
  8
0
 10
-0.5000
 20
-0.2071
 30
0.0000
  0
VERTEX
  8
0
 10
-0.5000
 20
0.2071
 30
0.0000
  0
VERTEX
  8
0
 10
-0.2071
 20
0.5000
 30
0.0000
  0
VERTEX
  8
0
 10
0.2071
 20
0.5000
 30
0.0000
  0
VERTEX
  8
0
 10
0.5000
 20
0.2071
 30
0.0000
  0
VERTEX
  8
0
 10
0.5000
 20
-0.2071
 30
0.0000
  0
VERTEX
  8
0
 10
0.2071
 20
-0.5000
 30
0.0000
  0
VERTEX
  8
0
 10
-0.2071
 20
-0.5000
 30
0.0000
  0
SEQEND
  8
0
  0
ENDBLK
  8
0
  0
BLOCK
  8
0
  2
SQUAREP
 70
64
 10
0.0000
 20
0.0000
 30
0.0000
  3
SQUAREP
  0
SOLID
  8
0
 10
-0.5000
 20
-0.5000
 30
0.0000
 11
0.5000
 21
-0.5000
 31
0.0000
 12
-0.5000
 22
0.5000
 32
0.0000
 13
0.5000
 23
0.5000
 33
0.0000
  0
ENDBLK
  8
0
  0
BLOCK
  8
0
  2
ROUNDP
 70
64
 10
0.0000
 20
0.0000
 30
0.0000
  3
ROUNDP
  0
CIRCLE
  8
0
 10
0.0000
 20
0.0000
 30
0.0000
 40
0.5000
  0
ENDBLK
  8
0
  0
BLOCK
  8
0
  2
ANNULUSP
 70
64
 10
0.0000
 20
0.0000
 30
0.0000
  3
ANNULUSP
  0
CIRCLE
  8
0
 10
0.0000
 20
0.0000
 30
0.0000
 40
0.5000
  0
ENDBLK
  8
0
  0
BLOCK
  8
0
  2
THERMALP
 70
64
 10
0.0000
 20
0.0000
 30
0.0000
  3
THERMALP
  0
LINE
  8
0
 10
-0.2379
 20
0.4500
 30
0.0000
 11
0.2379
 21
0.4500
 31
0.0000
  0
LINE
  8
0
 10
0.4500
 20
0.2379
 30
0.0000
 11
0.4500
 21
-0.2379
 31
0.0000
  0
LINE
  8
0
 10
0.2379
 20
-0.4500
 30
0.0000
 11
-0.2379
 21
-0.4500
 31
0.0000
  0
LINE
  8
0
 10
-0.4500
 20
-0.2379
 30
0.0000
 11
-0.4500
 21
0.2379
 31
0.0000
  0
ENDBLK
  8
0
  0
BLOCK
  8
0
  2
OCTAGONV
 70
64
 10
0.0000
 20
0.0000
 30
0.0000
  3
OCTAGONV
  0
POLYLINE
  8
0
 66
1
 10
0.0000
 20
0.0000
 30
0.0000
 40
0.0000
 41
0.0000
 70
1
  0
VERTEX
  8
0
 10
-0.5000
 20
-0.2071
 30
0.0000
  0
VERTEX
  8
0
 10
-0.5000
 20
0.2071
 30
0.0000
  0
VERTEX
  8
0
 10
-0.2071
 20
0.5000
 30
0.0000
  0
VERTEX
  8
0
 10
0.2071
 20
0.5000
 30
0.0000
  0
VERTEX
  8
0
 10
0.5000
 20
0.2071
 30
0.0000
  0
VERTEX
  8
0
 10
0.5000
 20
-0.2071
 30
0.0000
  0
VERTEX
  8
0
 10
0.2071
 20
-0.5000
 30
0.0000
  0
VERTEX
  8
0
 10
-0.2071
 20
-0.5000
 30
0.0000
  0
SEQEND
  8
0
  0
ENDBLK
  8
0
  0
BLOCK
  8
0
  2
SQUAREV
 70
64
 10
0.0000
 20
0.0000
 30
0.0000
  3
SQUAREV
  0
SOLID
  8
0
 10
-0.5000
 20
-0.5000
 30
0.0000
 11
0.5000
 21
-0.5000
 31
0.0000
 12
-0.5000
 22
0.5000
 32
0.0000
 13
0.5000
 23
0.5000
 33
0.0000
  0
ENDBLK
  8
0
  0
BLOCK
  8
0
  2
ROUNDV
 70
64
 10
0.0000
 20
0.0000
 30
0.0000
  3
ROUNDV
  0
CIRCLE
  8
0
 10
0.0000
 20
0.0000
 30
0.0000
 40
0.5000
  0
ENDBLK
  8
0
  0
BLOCK
  8
0
  2
ANNULUSV
 70
64
 10
0.0000
 20
0.0000
 30
0.0000
  3
ANNULUSV
  0
CIRCLE
  8
0
 10
0.0000
 20
0.0000
 30
0.0000
 40
0.5000
  0
ENDBLK
  8
0
  0
BLOCK
  8
0
  2
THERMALV
 70
64
 10
0.0000
 20
0.0000
 30
0.0000
  3
THERMALV
  0
LINE
  8
0
 10
-0.2379
 20
0.4500
 30
0.0000
 11
0.2379
 21
0.4500
 31
0.0000
  0
LINE
  8
0
 10
0.4500
 20
0.2379
 30
0.0000
 11
0.4500
 21
-0.2379
 31
0.0000
  0
LINE
  8
0
 10
0.2379
 20
-0.4500
 30
0.0000
 11
-0.2379
 21
-0.4500
 31
0.0000
  0
LINE
  8
0
 10
-0.4500
 20
-0.2379
 30
0.0000
 11
-0.4500
 21
0.2379
 31
0.0000
  0
ENDBLK
  8
0
  0
BLOCK
  8
0
  2
LONGP100
 70
64
 10
0.0000
 20
0.0000
 30
0.0000
  3
LONGP100
  0
POLYLINE
  8
0
 66
1
 10
0.0000
 20
0.0000
 30
0.0000
 40
0.0000
 41
0.0000
 70
1
  0
VERTEX
  8
0
 10
-0.5000
 20
-0.5000
 30
0.0000
  0
VERTEX
  8
0
 10
0.5000
 20
-0.5000
 30
0.0000
 42
1.0000
  0
VERTEX
  8
0
 10
0.5000
 20
0.5000
 30
0.0000
  0
VERTEX
  8
0
 10
-0.5000
 20
0.5000
 30
0.0000
 42
1.0000
  0
SEQEND
  8
0
  0
ENDBLK
  8
0
  0
ENDSEC
  0
SECTION
  2
ENTITIES
  0
LINE
  8
20
 10
49.3776
 20
0.0000
 30
0.0000
 11
49.3776
 21
1.5748
 31
0.0000
  0
LINE
  8
20
 10
49.3776
 20
1.5748
 30
0.0000
 11
41.7322
 21
1.5748
 31
0.0000
  0
LINE
  8
20
 10
41.7322
 20
1.5748
 30
0.0000
 11
41.7322
 21
0.0000
 31
0.0000
  0
LINE
  8
20
 10
41.7322
 20
0.0000
 30
0.0000
 11
1.1684
 21
0.0000
 31
0.0000
  0
LINE
  8
20
 10
0.0000
 20
1.1176
 30
0.0000
 11
0.0000
 21
43.4086
 31
0.0000
  0
LINE
  8
20
 10
0.0000
 20
43.4086
 30
0.0000
 11
1.5240
 21
43.4086
 31
0.0000
  0
LINE
  8
20
 10
1.5240
 20
43.4086
 30
0.0000
 11
1.5240
 21
49.3014
 31
0.0000
  0
LINE
  8
20
 10
1.5240
 20
49.3014
 30
0.0000
 11
0.0000
 21
49.3014
 31
0.0000
  0
LINE
  8
20
 10
0.0000
 20
49.3014
 30
0.0000
 11
0.0000
 21
58.5724
 31
0.0000
  0
LINE
  8
20
 10
1.1176
 20
59.7408
 30
0.0000
 11
3.0226
 21
59.7408
 31
0.0000
  0
LINE
  8
20
 10
4.1402
 20
60.9092
 30
0.0000
 11
4.1402
 21
90.8812
 31
0.0000
  0
LINE
  8
20
 10
4.1402
 20
90.8812
 30
0.0000
 11
5.7150
 21
90.8812
 31
0.0000
  0
LINE
  8
20
 10
5.7150
 20
90.8812
 30
0.0000
 11
5.7150
 21
95.2500
 31
0.0000
  0
LINE
  8
20
 10
5.7150
 20
95.2500
 30
0.0000
 11
4.1402
 21
95.2500
 31
0.0000
  0
LINE
  8
20
 10
4.1402
 20
95.2500
 30
0.0000
 11
4.1402
 21
101.6762
 31
0.0000
  0
LINE
  8
20
 10
1.1176
 20
132.8928
 30
0.0000
 11
192.2018
 21
132.8928
 31
0.0000
  0
LINE
  8
20
 10
192.2018
 20
132.8928
 30
0.0000
 11
192.2018
 21
130.9116
 31
0.0000
  0
LINE
  8
20
 10
192.2018
 20
130.9116
 30
0.0000
 11
197.0532
 21
130.9116
 31
0.0000
  0
LINE
  8
20
 10
197.0532
 20
130.9116
 30
0.0000
 11
197.0532
 21
132.8928
 31
0.0000
  0
LINE
  8
20
 10
197.0532
 20
132.8928
 30
0.0000
 11
203.4032
 21
132.8928
 31
0.0000
  0
LINE
  8
20
 10
203.4032
 20
132.8928
 30
0.0000
 11
203.4032
 21
131.6228
 31
0.0000
  0
LINE
  8
20
 10
203.4032
 20
131.6228
 30
0.0000
 11
209.3722
 21
131.6228
 31
0.0000
  0
LINE
  8
20
 10
209.3722
 20
131.6228
 30
0.0000
 11
209.3722
 21
132.8928
 31
0.0000
  0
LINE
  8
20
 10
209.3722
 20
132.8928
 30
0.0000
 11
232.2576
 21
132.8928
 31
0.0000
  0
LINE
  8
20
 10
233.4260
 20
131.7752
 30
0.0000
 11
233.4260
 21
129.4384
 31
0.0000
  0
LINE
  8
20
 10
233.4260
 20
129.4384
 30
0.0000
 11
235.3310
 21
129.4384
 31
0.0000
  0
LINE
  8
20
 10
236.4994
 20
128.3208
 30
0.0000
 11
236.4994
 21
104.0384
 31
0.0000
  0
LINE
  8
20
 10
236.4994
 20
104.0384
 30
0.0000
 11
235.4580
 21
104.0384
 31
0.0000
  0
LINE
  8
20
 10
233.4260
 20
102.0064
 30
0.0000
 11
233.4260
 21
89.1540
 31
0.0000
  0
LINE
  8
20
 10
233.4260
 20
89.1540
 30
0.0000
 11
232.0798
 21
89.1540
 31
0.0000
  0
LINE
  8
20
 10
232.0798
 20
89.1540
 30
0.0000
 11
232.0798
 21
83.0580
 31
0.0000
  0
LINE
  8
20
 10
232.0798
 20
83.0580
 30
0.0000
 11
233.4260
 21
83.0580
 31
0.0000
  0
LINE
  8
20
 10
233.4260
 20
83.0580
 30
0.0000
 11
233.4260
 21
70.0278
 31
0.0000
  0
LINE
  8
20
 10
235.4580
 20
67.9958
 30
0.0000
 11
243.1288
 21
67.9958
 31
0.0000
  0
LINE
  8
20
 10
245.1608
 20
70.0278
 30
0.0000
 11
245.1608
 21
82.1436
 31
0.0000
  0
LINE
  8
20
 10
245.1608
 20
82.1436
 30
0.0000
 11
307.2638
 21
82.1436
 31
0.0000
  0
LINE
  8
20
 10
313.0296
 20
66.6242
 30
0.0000
 11
313.0296
 21
1.1684
 31
0.0000
  0
LINE
  8
20
 10
311.9120
 20
0.0000
 30
0.0000
 11
227.9142
 21
0.0000
 31
0.0000
  0
LINE
  8
20
 10
227.9142
 20
0.0000
 30
0.0000
 11
227.9142
 21
2.1082
 31
0.0000
  0
LINE
  8
20
 10
227.9142
 20
2.1082
 30
0.0000
 11
222.9612
 21
2.1082
 31
0.0000
  0
LINE
  8
20
 10
222.9612
 20
2.1082
 30
0.0000
 11
222.9612
 21
0.0000
 31
0.0000
  0
LINE
  8
20
 10
222.9612
 20
0.0000
 30
0.0000
 11
185.4962
 21
0.0000
 31
0.0000
  0
LINE
  8
20
 10
185.4962
 20
0.0000
 30
0.0000
 11
185.4962
 21
1.5748
 31
0.0000
  0
LINE
  8
20
 10
185.4962
 20
1.5748
 30
0.0000
 11
177.4444
 21
1.5748
 31
0.0000
  0
LINE
  8
20
 10
177.4444
 20
1.5748
 30
0.0000
 11
177.4444
 21
0.0000
 31
0.0000
  0
LINE
  8
20
 10
177.4444
 20
0.0000
 30
0.0000
 11
115.2906
 21
0.0000
 31
0.0000
  0
LINE
  8
20
 10
115.2906
 20
0.0000
 30
0.0000
 11
115.2906
 21
1.5748
 31
0.0000
  0
LINE
  8
20
 10
115.2906
 20
1.5748
 30
0.0000
 11
107.3912
 21
1.5748
 31
0.0000
  0
LINE
  8
20
 10
107.3912
 20
1.5748
 30
0.0000
 11
107.3912
 21
0.0000
 31
0.0000
  0
LINE
  8
20
 10
107.3912
 20
0.0000
 30
0.0000
 11
49.3776
 21
0.0000
 31
0.0000
  0
LINE
  8
46
 10
301.2103
 20
53.7149
 30
0.0000
 11
300.2645
 21
53.7149
 31
0.0000
  0
LINE
  8
46
 10
300.2645
 20
53.7149
 30
0.0000
 11
300.2645
 21
56.4321
 31
0.0000
  0
LINE
  8
46
 10
300.2645
 20
56.4321
 30
0.0000
 11
301.2103
 21
56.4321
 31
0.0000
  0
LINE
  8
46
 10
301.2103
 20
56.4321
 30
0.0000
 11
301.2103
 21
53.7149
 31
0.0000
  0
LINE
  8
46
 10
299.6692
 20
5.4864
 30
0.0000
 11
298.6532
 21
5.4864
 31
0.0000
  0
LINE
  8
46
 10
298.6532
 20
5.4864
 30
0.0000
 11
298.6532
 21
11.6078
 31
0.0000
  0
LINE
  8
46
 10
298.6532
 20
11.6078
 30
0.0000
 11
299.6692
 21
11.6078
 31
0.0000
  0
LINE
  8
46
 10
299.6692
 20
11.6078
 30
0.0000
 11
299.6692
 21
5.4864
 31
0.0000
  0
LINE
  8
46
 10
64.5922
 20
103.1494
 30
0.0000
 11
58.5216
 21
103.1494
 31
0.0000
  0
LINE
  8
46
 10
58.5216
 20
103.1494
 30
0.0000
 11
58.5216
 21
104.0384
 31
0.0000
  0
LINE
  8
46
 10
58.5216
 20
104.0384
 30
0.0000
 11
64.5922
 21
104.0384
 31
0.0000
  0
LINE
  8
46
 10
64.5922
 20
104.0384
 30
0.0000
 11
64.5922
 21
103.1494
 31
0.0000
  0
LINE
  8
46
 10
76.8096
 20
109.8550
 30
0.0000
 11
75.4888
 21
109.8550
 31
0.0000
  0
LINE
  8
46
 10
75.4888
 20
109.8550
 30
0.0000
 11
75.4888
 21
114.5540
 31
0.0000
  0
LINE
  8
46
 10
75.4888
 20
114.5540
 30
0.0000
 11
76.8096
 21
114.5540
 31
0.0000
  0
LINE
  8
46
 10
76.8096
 20
114.5540
 30
0.0000
 11
76.8096
 21
109.8550
 31
0.0000
  0
LINE
  8
46
 10
111.5314
 20
127.7112
 30
0.0000
 11
106.9848
 21
127.7112
 31
0.0000
  0
LINE
  8
46
 10
106.9848
 20
127.7112
 30
0.0000
 11
106.9848
 21
129.0066
 31
0.0000
  0
LINE
  8
46
 10
106.9848
 20
129.0066
 30
0.0000
 11
111.5314
 21
129.0066
 31
0.0000
  0
LINE
  8
46
 10
111.5314
 20
129.0066
 30
0.0000
 11
111.5314
 21
127.7112
 31
0.0000
  0
LINE
  8
46
 10
146.4818
 20
124.9680
 30
0.0000
 11
145.5420
 21
124.9680
 31
0.0000
  0
LINE
  8
46
 10
145.5420
 20
124.9680
 30
0.0000
 11
145.5420
 21
129.3622
 31
0.0000
  0
LINE
  8
46
 10
145.5420
 20
129.3622
 30
0.0000
 11
146.4818
 21
129.3622
 31
0.0000
  0
LINE
  8
46
 10
146.4818
 20
129.3622
 30
0.0000
 11
146.4818
 21
124.9680
 31
0.0000
  0
LINE
  8
46
 10
143.0782
 20
110.0836
 30
0.0000
 11
141.8844
 21
110.0836
 31
0.0000
  0
LINE
  8
46
 10
141.8844
 20
110.0836
 30
0.0000
 11
141.8844
 21
114.5032
 31
0.0000
  0
LINE
  8
46
 10
141.8844
 20
114.5032
 30
0.0000
 11
143.0782
 21
114.5032
 31
0.0000
  0
LINE
  8
46
 10
143.0782
 20
114.5032
 30
0.0000
 11
143.0782
 21
110.0836
 31
0.0000
  0
LINE
  8
46
 10
111.7092
 20
95.4532
 30
0.0000
 11
107.0356
 21
95.4532
 31
0.0000
  0
LINE
  8
46
 10
107.0356
 20
95.4532
 30
0.0000
 11
107.0356
 21
96.7994
 31
0.0000
  0
LINE
  8
46
 10
107.0356
 20
96.7994
 30
0.0000
 11
111.7092
 21
96.7994
 31
0.0000
  0
LINE
  8
46
 10
111.7092
 20
96.7994
 30
0.0000
 11
111.7092
 21
95.4532
 31
0.0000
  0
LINE
  8
46
 10
119.6086
 20
92.0496
 30
0.0000
 11
113.6142
 21
92.0496
 31
0.0000
  0
LINE
  8
46
 10
113.6142
 20
92.0496
 30
0.0000
 11
113.6142
 21
93.1418
 31
0.0000
  0
LINE
  8
46
 10
113.6142
 20
93.1418
 30
0.0000
 11
119.6086
 21
93.1418
 31
0.0000
  0
LINE
  8
46
 10
119.6086
 20
93.1418
 30
0.0000
 11
119.6086
 21
92.0496
 31
0.0000
  0
ARC
  8
20
 10
309.2958
 20
69.7738
 30
0.0000
 40
2.0320
 50
180.0000
 51
270.0000
  0
ARC
  8
20
 10
243.1288
 20
70.0278
 30
0.0000
 40
2.0320
 50
270.0000
 51
0.0000
  0
ARC
  8
20
 10
235.4580
 20
70.0278
 30
0.0000
 40
2.0320
 50
180.0000
 51
270.0000
  0
LINE
  8
20
 10
311.8612
 20
67.7418
 30
0.0000
 11
309.2958
 21
67.7418
 31
0.0000
  0
LINE
  8
20
 10
307.2638
 20
69.7738
 30
0.0000
 11
307.2638
 21
82.1436
 31
0.0000
  0
ARC
  8
20
 10
1.1430
 20
103.9368
 30
0.0000
 40
1.1433
 50
181.2730
 51
271.2730
  0
ARC
  8
20
 10
2.9972
 20
101.6508
 30
0.0000
 40
1.1433
 50
1.2730
 51
91.2730
  0
ARC
  8
20
 10
2.9972
 20
60.8838
 30
0.0000
 40
1.1433
 50
271.2730
 51
1.2730
  0
ARC
  8
20
 10
1.1430
 20
58.5978
 30
0.0000
 40
1.1433
 50
91.2730
 51
181.2730
  0
LINE
  8
20
 10
1.1684
 20
102.7938
 30
0.0000
 11
2.9718
 21
102.7938
 31
0.0000
  0
LINE
  8
20
 10
0.0000
 20
103.9114
 30
0.0000
 11
0.0000
 21
131.7244
 31
0.0000
  0
ARC
  8
20
 10
1.1430
 20
1.1430
 30
0.0000
 40
1.1433
 50
181.2730
 51
271.2730
  0
ARC
  8
20
 10
1.1430
 20
131.7498
 30
0.0000
 40
1.1433
 50
91.2730
 51
181.2730
  0
ARC
  8
20
 10
232.2830
 20
131.7498
 30
0.0000
 40
1.1433
 50
1.2730
 51
91.2730
  0
ARC
  8
20
 10
235.3564
 20
128.2954
 30
0.0000
 40
1.1433
 50
1.2730
 51
91.2730
  0
ARC
  8
20
 10
235.4580
 20
70.0278
 30
0.0000
 40
2.0320
 50
180.0000
 51
270.0000
  0
ARC
  8
20
 10
235.4580
 20
102.0064
 30
0.0000
 40
2.0320
 50
90.0000
 51
180.0000
  0
ARC
  8
20
 10
311.8866
 20
66.5988
 30
0.0000
 40
1.1433
 50
1.2730
 51
91.2730
  0
ARC
  8
20
 10
311.8866
 20
1.1430
 30
0.0000
 40
1.1433
 50
271.2730
 51
1.2730
  0
CIRCLE
  8
20
 10
5.0292
 20
28.9560
 30
0.0000
 40
1.6256
  0
CIRCLE
  8
20
 10
158.5468
 20
110.3884
 30
0.0000
 40
1.6256
  0
CIRCLE
  8
20
 10
290.4744
 20
11.4554
 30
0.0000
 40
1.6256
  0
CIRCLE
  8
46
 10
233.6292
 20
11.4300
 30
0.0000
 40
2.9972
  0
CIRCLE
  8
20
 10
242.0112
 20
58.1406
 30
0.0000
 40
2.7940
  0
CIRCLE
  8
46
 10
230.8860
 20
122.9360
 30
0.0000
 40
2.9972
  0
CIRCLE
  8
20
 10
307.3146
 20
56.0324
 30
0.0000
 40
2.7940
  0
CIRCLE
  8
46
 10
309.3720
 20
3.3274
 30
0.0000
 40
1.4224
  0
CIRCLE
  8
20
 10
66.2686
 20
127.3556
 30
0.0000
 40
1.6256
  0
CIRCLE
  8
20
 10
13.1318
 20
122.0216
 30
0.0000
 40
1.4732
  0
CIRCLE
  8
20
 10
199.5132
 20
127.9906
 30
0.0000
 40
0.6000
  0
CIRCLE
  8
20
 10
199.5132
 20
130.4906
 30
0.0000
 40
0.6000
  0
CIRCLE
  8
20
 10
189.5132
 20
130.4906
 30
0.0000
 40
0.6000
  0
CIRCLE
  8
20
 10
189.5132
 20
127.9906
 30
0.0000
 40
0.6000
  0
CIRCLE
  8
20
 10
194.5132
 20
122.9906
 30
0.0000
 40
0.6000
  0
LINE
  8
46
 10
222.6310
 20
105.4862
 30
0.0000
 11
225.1710
 21
105.4862
 31
0.0000
  0
LINE
  8
46
 10
225.1710
 20
105.4862
 30
0.0000
 11
225.1710
 21
104.7242
 31
0.0000
  0
LINE
  8
46
 10
225.1710
 20
104.7242
 30
0.0000
 11
222.6310
 21
104.7242
 31
0.0000
  0
LINE
  8
46
 10
222.6310
 20
104.7242
 30
0.0000
 11
222.6310
 21
105.4862
 31
0.0000
  0
LINE
  8
46
 10
222.6310
 20
95.0722
 30
0.0000
 11
225.1710
 21
95.0722
 31
0.0000
  0
LINE
  8
46
 10
225.1710
 20
95.0722
 30
0.0000
 11
225.1710
 21
95.8342
 31
0.0000
  0
LINE
  8
46
 10
225.1710
 20
95.8342
 30
0.0000
 11
222.6310
 21
95.8342
 31
0.0000
  0
LINE
  8
46
 10
222.6310
 20
95.8342
 30
0.0000
 11
222.6310
 21
95.0722
 31
0.0000
  0
ARC
  8
46
 10
294.9448
 20
35.4838
 30
0.0000
 40
0.6350
 50
0.0000
 51
180.0000
  0
ARC
  8
46
 10
294.9448
 20
33.4518
 30
0.0000
 40
0.6350
 50
180.0000
 51
0.0000
  0
LINE
  8
46
 10
294.3098
 20
35.4838
 30
0.0000
 11
294.3098
 21
34.9678
 31
0.0000
  0
LINE
  8
46
 10
294.3098
 20
33.9678
 30
0.0000
 11
294.3098
 21
33.4518
 31
0.0000
  0
LINE
  8
46
 10
295.5798
 20
35.4838
 30
0.0000
 11
295.5798
 21
34.9678
 31
0.0000
  0
LINE
  8
46
 10
295.5798
 20
33.9678
 30
0.0000
 11
295.5798
 21
33.4518
 31
0.0000
  0
ARC
  8
46
 10
297.8658
 20
35.4838
 30
0.0000
 40
0.6350
 50
0.0000
 51
180.0000
  0
ARC
  8
46
 10
297.8658
 20
33.4518
 30
0.0000
 40
0.6350
 50
180.0000
 51
0.0000
  0
LINE
  8
46
 10
297.2308
 20
35.4838
 30
0.0000
 11
297.2308
 21
34.9678
 31
0.0000
  0
LINE
  8
46
 10
297.2308
 20
33.9678
 30
0.0000
 11
297.2308
 21
33.4518
 31
0.0000
  0
LINE
  8
46
 10
298.5008
 20
35.4838
 30
0.0000
 11
298.5008
 21
34.9678
 31
0.0000
  0
LINE
  8
46
 10
298.5008
 20
33.9678
 30
0.0000
 11
298.5008
 21
33.4518
 31
0.0000
  0
ARC
  8
46
 10
300.7868
 20
35.4838
 30
0.0000
 40
0.6350
 50
0.0000
 51
180.0000
  0
ARC
  8
46
 10
300.7868
 20
33.4518
 30
0.0000
 40
0.6350
 50
180.0000
 51
0.0000
  0
LINE
  8
46
 10
300.1518
 20
35.4838
 30
0.0000
 11
300.1518
 21
34.9678
 31
0.0000
  0
LINE
  8
46
 10
300.1518
 20
33.9678
 30
0.0000
 11
300.1518
 21
33.4518
 31
0.0000
  0
LINE
  8
46
 10
301.4218
 20
35.4838
 30
0.0000
 11
301.4218
 21
34.9678
 31
0.0000
  0
LINE
  8
46
 10
301.4218
 20
33.9678
 30
0.0000
 11
301.4218
 21
33.4518
 31
0.0000
  0
ARC
  8
46
 10
294.9448
 20
39.9288
 30
0.0000
 40
0.6350
 50
0.0000
 51
180.0000
  0
ARC
  8
46
 10
294.9448
 20
37.8968
 30
0.0000
 40
0.6350
 50
180.0000
 51
0.0000
  0
LINE
  8
46
 10
294.3098
 20
39.9288
 30
0.0000
 11
294.3098
 21
39.4128
 31
0.0000
  0
LINE
  8
46
 10
294.3098
 20
38.4128
 30
0.0000
 11
294.3098
 21
37.8968
 31
0.0000
  0
LINE
  8
46
 10
295.5798
 20
39.9288
 30
0.0000
 11
295.5798
 21
39.4128
 31
0.0000
  0
LINE
  8
46
 10
295.5798
 20
38.4128
 30
0.0000
 11
295.5798
 21
37.8968
 31
0.0000
  0
ARC
  8
46
 10
297.8658
 20
39.9288
 30
0.0000
 40
0.6350
 50
0.0000
 51
180.0000
  0
ARC
  8
46
 10
297.8658
 20
37.8968
 30
0.0000
 40
0.6350
 50
180.0000
 51
0.0000
  0
LINE
  8
46
 10
297.2308
 20
39.9288
 30
0.0000
 11
297.2308
 21
39.4128
 31
0.0000
  0
LINE
  8
46
 10
297.2308
 20
38.4128
 30
0.0000
 11
297.2308
 21
37.8968
 31
0.0000
  0
LINE
  8
46
 10
298.5008
 20
39.9288
 30
0.0000
 11
298.5008
 21
39.4128
 31
0.0000
  0
LINE
  8
46
 10
298.5008
 20
38.4128
 30
0.0000
 11
298.5008
 21
37.8968
 31
0.0000
  0
ARC
  8
46
 10
300.7868
 20
39.9288
 30
0.0000
 40
0.6350
 50
0.0000
 51
180.0000
  0
ARC
  8
46
 10
300.7868
 20
37.8968
 30
0.0000
 40
0.6350
 50
180.0000
 51
0.0000
  0
LINE
  8
46
 10
300.1518
 20
39.9288
 30
0.0000
 11
300.1518
 21
39.4128
 31
0.0000
  0
LINE
  8
46
 10
300.1518
 20
38.4128
 30
0.0000
 11
300.1518
 21
37.8968
 31
0.0000
  0
LINE
  8
46
 10
301.4218
 20
39.9288
 30
0.0000
 11
301.4218
 21
39.4128
 31
0.0000
  0
LINE
  8
46
 10
301.4218
 20
38.4128
 30
0.0000
 11
301.4218
 21
37.8968
 31
0.0000
  0
ARC
  8
46
 10
294.9448
 20
44.3738
 30
0.0000
 40
0.6350
 50
0.0000
 51
180.0000
  0
ARC
  8
46
 10
294.9448
 20
42.3418
 30
0.0000
 40
0.6350
 50
180.0000
 51
0.0000
  0
LINE
  8
46
 10
294.3098
 20
44.3738
 30
0.0000
 11
294.3098
 21
43.8578
 31
0.0000
  0
LINE
  8
46
 10
294.3098
 20
42.8578
 30
0.0000
 11
294.3098
 21
42.3418
 31
0.0000
  0
LINE
  8
46
 10
295.5798
 20
44.3738
 30
0.0000
 11
295.5798
 21
43.8578
 31
0.0000
  0
LINE
  8
46
 10
295.5798
 20
42.8578
 30
0.0000
 11
295.5798
 21
42.3418
 31
0.0000
  0
ARC
  8
46
 10
297.8658
 20
44.3738
 30
0.0000
 40
0.6350
 50
0.0000
 51
180.0000
  0
ARC
  8
46
 10
297.8658
 20
42.3418
 30
0.0000
 40
0.6350
 50
180.0000
 51
0.0000
  0
LINE
  8
46
 10
297.2308
 20
44.3738
 30
0.0000
 11
297.2308
 21
43.8578
 31
0.0000
  0
LINE
  8
46
 10
297.2308
 20
42.8578
 30
0.0000
 11
297.2308
 21
42.3418
 31
0.0000
  0
LINE
  8
46
 10
298.5008
 20
44.3738
 30
0.0000
 11
298.5008
 21
43.8578
 31
0.0000
  0
LINE
  8
46
 10
298.5008
 20
42.8578
 30
0.0000
 11
298.5008
 21
42.3418
 31
0.0000
  0
ARC
  8
46
 10
300.7868
 20
44.3738
 30
0.0000
 40
0.6350
 50
0.0000
 51
180.0000
  0
ARC
  8
46
 10
300.7868
 20
42.3418
 30
0.0000
 40
0.6350
 50
180.0000
 51
0.0000
  0
LINE
  8
46
 10
300.1518
 20
44.3738
 30
0.0000
 11
300.1518
 21
43.8578
 31
0.0000
  0
LINE
  8
46
 10
300.1518
 20
42.8578
 30
0.0000
 11
300.1518
 21
42.3418
 31
0.0000
  0
LINE
  8
46
 10
301.4218
 20
44.3738
 30
0.0000
 11
301.4218
 21
43.8578
 31
0.0000
  0
LINE
  8
46
 10
301.4218
 20
42.8578
 30
0.0000
 11
301.4218
 21
42.3418
 31
0.0000
  0
LINE
  8
46
 10
307.3908
 20
51.3588
 30
0.0000
 11
310.4388
 21
51.3588
 31
0.0000
  0
LINE
  8
46
 10
310.4388
 20
51.3588
 30
0.0000
 11
310.4388
 21
50.2158
 31
0.0000
  0
LINE
  8
46
 10
310.4388
 20
50.2158
 30
0.0000
 11
307.3908
 21
50.2158
 31
0.0000
  0
LINE
  8
46
 10
307.3908
 20
50.2158
 30
0.0000
 11
307.3908
 21
51.3588
 31
0.0000
  0
LINE
  8
46
 10
307.3908
 20
27.4828
 30
0.0000
 11
310.4388
 21
27.4828
 31
0.0000
  0
LINE
  8
46
 10
310.4388
 20
27.4828
 30
0.0000
 11
310.4388
 21
26.3398
 31
0.0000
  0
LINE
  8
46
 10
310.4388
 20
26.3398
 30
0.0000
 11
307.3908
 21
26.3398
 31
0.0000
  0
LINE
  8
46
 10
307.3908
 20
26.3398
 30
0.0000
 11
307.3908
 21
27.4828
 31
0.0000
  0
ENDSEC
  0
EOF
